<?xml version="1.0" encoding="utf-8"?>
<!-- Generator: Adobe Illustrator 24.3.0, SVG Export Plug-In . SVG Version: 6.00 Build 0)  -->
<svg version="1.1" id="Layer_1" xmlns="http://www.w3.org/2000/svg" xmlns:xlink="http://www.w3.org/1999/xlink" x="0px" y="0px"
	 viewBox="0 0 32 32" style="enable-background:new 0 0 32 32;" xml:space="preserve">
<g id="SVGRepo_bgCarrier">
</g>
<g id="SVGRepo_tracerCarrier">
</g>
<g>
	<path d="M15.15,31.75c-0.56-0.04-1.13-0.05-1.68-0.13c-0.64-0.09-1.29-0.16-1.89-0.36c-1.38-0.46-2.12-1.46-2.27-2.91
		c-0.34-3.33-0.69-6.67-1.04-10c-0.16-1.52-0.31-3.04-0.47-4.56c-0.04-0.43,0.19-0.77,0.62-0.9c0.43-0.13,0.81,0.01,1.01,0.41
		c0.08,0.17,0.14,0.37,0.16,0.56c0.2,1.84,0.38,3.69,0.58,5.53c0.22,2.08,0.43,4.16,0.65,6.24c0.08,0.75,0.14,1.51,0.27,2.26
		c0.22,1.31,0.92,2.03,2.25,2.12c1.93,0.13,3.87,0.25,5.79-0.1c1.2-0.22,1.75-0.83,1.87-2.04c0.32-3.17,0.64-6.34,0.96-9.51
		c0.19-1.82,0.38-3.65,0.56-5.47c0.05-0.55-0.27-0.85-0.82-0.79c-2.55,0.3-5.11,0.37-7.68,0.27c-2.34-0.09-4.66-0.35-6.96-0.75
		c-1.34-0.24-2.1-1.31-1.89-2.65C5.25,8.48,5.34,8,5.46,7.54C5.78,6.22,6.75,5.56,8.1,5.8c3.16,0.57,6.35,0.75,9.55,0.65
		c1.53-0.05,3.06-0.23,4.6-0.36c0.37-0.03,0.46-0.17,0.38-0.54c-0.15-0.68-0.31-1.36-0.44-2.04c-0.1-0.53-0.41-0.84-0.93-0.93
		c-1.12-0.17-2.24-0.38-3.37-0.47c-1.91-0.16-3.83-0.08-5.74,0.1c-0.47,0.05-0.93,0.13-1.39,0.22c-0.1,0.02-0.18,0.12-0.27,0.18
		c0.09,0.05,0.17,0.14,0.27,0.15c0.76,0.11,1.52,0.27,2.28,0.29C14.68,3.11,16.34,3.1,18,3.08c0.56-0.01,1.12-0.11,1.68-0.17
		c0.44-0.05,0.87-0.05,1.14,0.4c0.32,0.54,0.03,1.25-0.6,1.31c-1.48,0.14-2.96,0.28-4.44,0.32c-1.74,0.04-3.49-0.03-5.2-0.39
		C9.84,4.39,9.11,4.17,8.42,3.87C7.48,3.47,7.2,2.54,7.77,1.85C8,1.56,8.36,1.34,8.7,1.18c0.92-0.42,1.92-0.56,2.92-0.68
		c2.38-0.29,4.77-0.32,7.15-0.12c1.21,0.1,2.4,0.31,3.55,0.7c0.87,0.29,1.43,0.84,1.58,1.78c0.11,0.68,0.25,1.35,0.35,2.03
		c0.08,0.56,0.33,0.93,0.9,1.05c0.46,0.1,0.84,0.37,1.06,0.78c0.49,0.95,0.74,1.98,0.64,3.05c-0.09,0.93-0.67,1.54-1.58,1.79
		c-0.08,0.02-0.16,0.04-0.24,0.06c-0.47,0.11-0.61,0.25-0.66,0.72c-0.14,1.31-0.28,2.63-0.41,3.94c-0.22,2.12-0.44,4.24-0.65,6.36
		c-0.19,1.81-0.35,3.63-0.57,5.44c-0.23,1.9-1.54,3.2-3.44,3.47c-0.5,0.07-0.99,0.12-1.49,0.18C16.91,31.75,16.03,31.75,15.15,31.75
		z M15.96,10.6c2.71,0.02,5.34-0.22,7.96-0.59c1.04-0.15,1.27-0.47,1.13-1.51c-0.1-0.73-0.51-1.01-1.24-0.92
		c-1.73,0.22-3.45,0.47-5.18,0.62c-2.98,0.25-5.96,0.06-8.92-0.35C9.09,7.76,8.48,7.63,7.86,7.55C7.42,7.5,7.2,7.65,7.08,8.07
		c-0.1,0.35-0.17,0.72-0.19,1.08c-0.03,0.47,0.18,0.7,0.65,0.77C10.35,10.32,13.17,10.63,15.96,10.6z"/>
	<path d="M21.47,14.32c-0.13,1.36-0.25,2.69-0.38,4.03c-0.17,1.85-0.35,3.69-0.53,5.54c-0.11,1.15-0.2,2.31-0.32,3.46
		c-0.11,1.07-0.85,1.79-1.93,1.82c-1.57,0.03-3.13,0.03-4.7-0.01c-1.01-0.02-1.73-0.79-1.84-1.85c-0.35-3.66-0.71-7.32-1.06-10.98
		c-0.02-0.24-0.05-0.48-0.07-0.72c0.54,0.07,1.06,0.17,1.57,0.21c1.46,0.11,2.81-0.29,4.15-0.83c0.83-0.34,1.68-0.66,2.54-0.89
		C19.75,13.87,20.61,14,21.47,14.32z"/>
</g>
</svg>
