<?xml version="1.0" encoding="utf-8"?>
<!-- Generator: Adobe Illustrator 24.3.0, SVG Export Plug-In . SVG Version: 6.00 Build 0)  -->
<svg version="1.1" id="Layer_1" xmlns="http://www.w3.org/2000/svg" xmlns:xlink="http://www.w3.org/1999/xlink" x="0px" y="0px"
	 viewBox="0 0 32 32" style="enable-background:new 0 0 32 32;" xml:space="preserve">
<g>
	<path d="M16.02,2.5c4.42,0,8.84,0,13.27,0c1.25,0,2.11,0.63,2.39,1.73c0.32,1.25-0.53,2.54-1.81,2.74C29.66,6.99,29.44,7,29.22,7
		c-8.82,0-17.63,0-26.45,0c-1.28,0-2.14-0.59-2.44-1.66c-0.36-1.29,0.49-2.61,1.81-2.8C2.39,2.5,2.64,2.5,2.89,2.5
		C7.27,2.49,11.65,2.5,16.02,2.5z"/>
	<path d="M16.02,13.74c4.42,0,8.85,0,13.27,0c1.25,0,2.11,0.63,2.39,1.72c0.32,1.25-0.53,2.54-1.81,2.74
		c-0.22,0.03-0.44,0.05-0.66,0.05c-8.82,0-17.63,0-26.45,0c-1.28,0-2.14-0.59-2.44-1.66c-0.36-1.29,0.49-2.61,1.81-2.8
		c0.24-0.04,0.5-0.04,0.74-0.04C7.27,13.74,11.64,13.74,16.02,13.74z"/>
	<path d="M22.74,29.5c-2.2,0-4.39,0.01-6.59,0c-1.34-0.01-2.27-0.82-2.4-2.07c-0.11-1.1,0.69-2.18,1.78-2.38
		c0.23-0.04,0.47-0.06,0.7-0.06c4.35,0,8.69,0,13.04,0c1.24,0,2.09,0.6,2.39,1.66c0.36,1.29-0.49,2.61-1.81,2.8
		c-0.3,0.04-0.61,0.05-0.92,0.05C26.87,29.51,24.81,29.5,22.74,29.5z"/>
</g>
</svg>
