<?xml version="1.0" encoding="utf-8"?>
<!-- Generator: Adobe Illustrator 24.3.0, SVG Export Plug-In . SVG Version: 6.00 Build 0)  -->
<svg version="1.1" id="Layer_1" xmlns="http://www.w3.org/2000/svg" xmlns:xlink="http://www.w3.org/1999/xlink" x="0px" y="0px"
	 viewBox="0 0 32 32" style="enable-background:new 0 0 32 32;" xml:space="preserve">
<g>
	<path d="M15.69,31.75c-0.62-0.14-1.19-0.37-1.63-0.86c-0.99-1.11-0.94-2.61,0.12-3.71c0.31-0.32,0.62-0.62,0.93-0.94
		c3.33-3.33,6.66-6.66,9.99-9.99c0.08-0.08,0.18-0.14,0.29-0.22c-0.13-0.14-0.21-0.23-0.3-0.31c-3.6-3.6-7.21-7.21-10.81-10.81
		c-0.81-0.81-1.12-1.74-0.79-2.86c0.51-1.69,2.71-2.37,4.09-1.27c0.18,0.14,0.34,0.29,0.5,0.45c4.15,4.15,8.29,8.3,12.45,12.44
		c0.58,0.58,1.07,1.18,1.21,2.01c0,0.21,0,0.41,0,0.62c-0.14,0.83-0.63,1.43-1.21,2.01c-4.08,4.07-8.16,8.14-12.22,12.23
		c-0.58,0.58-1.18,1.07-2.01,1.21C16.1,31.75,15.9,31.75,15.69,31.75z"/>
	<path d="M9.54,15.32c-0.13-0.14-0.25-0.27-0.37-0.39c-2.67-2.82-5.35-5.64-8.02-8.46C0.18,5.45-0.01,4.19,0.61,2.96
		c0.76-1.48,2.73-1.89,3.97-0.79c0.6,0.54,1.14,1.15,1.7,1.73c2.94,3.1,5.89,6.2,8.83,9.31c0.97,1.03,1.16,2.32,0.51,3.53
		c-0.14,0.26-0.34,0.49-0.54,0.71C11.7,21.03,8.31,24.6,4.92,28.17c-0.98,1.04-2.29,1.22-3.42,0.5c-1.29-0.82-1.65-2.79-0.74-4.03
		c0.13-0.18,0.28-0.36,0.43-0.52c2.73-2.88,5.46-5.76,8.19-8.64C9.43,15.44,9.47,15.4,9.54,15.32z"/>
</g>
</svg>
